# xmcd
#
# Track frame offsets:
#	150
#	11757
#	29811
#	52998
#	71300
#	86315
#
# Disc length: 1349 seconds
#
# Revision: 0
# Processed by: cddbd v1.5.2PL0 Copyright (c) Steve Scherf et al.
# Submitted via: EasyCDDAExtractor 10.0.3.1
#
DISCID=43054306
DTITLE=The Tiny Lies - TRIALS
DYEAR=2011
DGENRE=Country
TTITLE0=Three Years
TTITLE1=I Am A Ghost
TTITLE2=Oh Jeremy
TTITLE3=Waterbaby
TTITLE4=Unspeak
TTITLE5=You Once Said
EXTD=
EXTT0=
EXTT1=
EXTT2=
EXTT3=
EXTT4=
EXTT5=
PLAYORDER=
